# xmcd CD database file
#
# Track frame offsets:
#	150
#	15082
#	31197
#	50630
#	67472
#	86507
#	99152
#	115772
#	132272
#	139402
#
# Disc length: 2116 seconds
#
# Revision: 0
# Processed by: cddbd v1.5PL3 Copyright (c) Steve Scherf et al.
# Submitted via: CDex 1.51
#
DISCID=8108420a
DTITLE=BLOOD - CRACK!
DYEAR=2004
DGENRE=Rock
TTITLE0=For The End
TTITLE1=Don't Stay
TTITLE2=STICK and CHAINS
TTITLE3=HOW DO YOU FEEL?
TTITLE4=SHIT LIST
TTITLE5=Heaven Duster
TTITLE6=Na Na Na・・・
TTITLE7=DX
TTITLE8=BUZZ!!!
TTITLE9=SPADE
EXTD=YEAR: 2004
EXTT0=
EXTT1=
EXTT2=
EXTT3=
EXTT4=
EXTT5=
EXTT6=
EXTT7=
EXTT8=
EXTT9=
PLAYORDER=
